<svg xmlns="http://www.w3.org/2000/svg" viewBox="0 0 1200 200" width="1200" height="200">
<rect width="1200" height="200" fill="#000"/>
<rect x="516" y="70" width="12" height="6" fill="#fff"/>
<rect x="528" y="64" width="12" height="12" fill="#fff"/>
<rect x="540" y="64" width="12" height="12" fill="#fff"/>
<rect x="552" y="64" width="12" height="12" fill="#fff"/>
<rect x="564" y="64" width="12" height="12" fill="#fff"/>
<rect x="576" y="70" width="12" height="6" fill="#fff"/>
<rect x="612" y="70" width="12" height="6" fill="#fff"/>
<rect x="624" y="64" width="12" height="12" fill="#fff"/>
<rect x="636" y="64" width="12" height="12" fill="#fff"/>
<rect x="648" y="64" width="12" height="12" fill="#fff"/>
<rect x="660" y="64" width="12" height="12" fill="#fff"/>
<rect x="672" y="70" width="12" height="6" fill="#fff"/>
<rect x="504" y="76" width="12" height="12" fill="#fff"/>
<rect x="516" y="76" width="12" height="12" fill="#fff"/>
<rect x="528" y="76" width="12" height="12" fill="#fff"/>
<rect x="540" y="76" width="12" height="12" fill="#fff"/>
<rect x="552" y="76" width="12" height="12" fill="#fff"/>
<rect x="564" y="76" width="12" height="12" fill="#fff"/>
<rect x="576" y="76" width="12" height="12" fill="#fff"/>
<rect x="588" y="76" width="12" height="12" fill="#fff"/>
<rect x="600" y="76" width="12" height="12" fill="#fff"/>
<rect x="612" y="76" width="12" height="12" fill="#fff"/>
<rect x="624" y="76" width="12" height="12" fill="#fff"/>
<rect x="636" y="76" width="12" height="12" fill="#fff"/>
<rect x="648" y="76" width="12" height="12" fill="#fff"/>
<rect x="660" y="76" width="12" height="12" fill="#fff"/>
<rect x="672" y="76" width="12" height="12" fill="#fff"/>
<rect x="684" y="76" width="12" height="12" fill="#fff"/>
<rect x="504" y="88" width="12" height="12" fill="#fff"/>
<rect x="516" y="88" width="12" height="12" fill="#fff"/>
<rect x="528" y="88" width="12" height="12" fill="#fff"/>
<rect x="564" y="88" width="12" height="12" fill="#fff"/>
<rect x="576" y="88" width="12" height="12" fill="#fff"/>
<rect x="588" y="88" width="12" height="12" fill="#fff"/>
<rect x="600" y="88" width="12" height="6" fill="#fff"/>
<rect x="624" y="88" width="12" height="6" fill="#fff"/>
<rect x="636" y="88" width="12" height="12" fill="#fff"/>
<rect x="648" y="88" width="12" height="12" fill="#fff"/>
<rect x="660" y="88" width="12" height="12" fill="#fff"/>
<rect x="672" y="88" width="12" height="12" fill="#fff"/>
<rect x="684" y="88" width="12" height="12" fill="#fff"/>
<rect x="504" y="100" width="12" height="12" fill="#fff"/>
<rect x="516" y="100" width="12" height="12" fill="#fff"/>
<rect x="528" y="100" width="12" height="12" fill="#fff"/>
<rect x="564" y="100" width="12" height="12" fill="#fff"/>
<rect x="576" y="100" width="12" height="12" fill="#fff"/>
<rect x="588" y="100" width="12" height="12" fill="#fff"/>
<rect x="636" y="100" width="12" height="12" fill="#fff"/>
<rect x="648" y="100" width="12" height="12" fill="#fff"/>
<rect x="660" y="100" width="12" height="12" fill="#fff"/>
<rect x="672" y="100" width="12" height="12" fill="#fff"/>
<rect x="684" y="100" width="12" height="12" fill="#fff"/>
<rect x="504" y="112" width="12" height="12" fill="#fff"/>
<rect x="516" y="112" width="12" height="12" fill="#fff"/>
<rect x="528" y="112" width="12" height="12" fill="#fff"/>
<rect x="564" y="112" width="12" height="12" fill="#fff"/>
<rect x="576" y="112" width="12" height="12" fill="#fff"/>
<rect x="588" y="112" width="12" height="12" fill="#fff"/>
<rect x="636" y="112" width="12" height="12" fill="#fff"/>
<rect x="648" y="112" width="12" height="12" fill="#fff"/>
<rect x="660" y="112" width="12" height="12" fill="#fff"/>
<rect x="672" y="112" width="12" height="12" fill="#fff"/>
<rect x="684" y="112" width="12" height="12" fill="#fff"/>
<rect x="504" y="124" width="12" height="12" fill="#fff"/>
<rect x="516" y="124" width="12" height="12" fill="#fff"/>
<rect x="528" y="124" width="12" height="12" fill="#fff"/>
<rect x="564" y="124" width="12" height="12" fill="#fff"/>
<rect x="576" y="124" width="12" height="12" fill="#fff"/>
<rect x="588" y="124" width="12" height="12" fill="#fff"/>
<rect x="636" y="124" width="12" height="12" fill="#fff"/>
<rect x="648" y="124" width="12" height="12" fill="#fff"/>
<rect x="660" y="124" width="12" height="12" fill="#fff"/>
<rect x="672" y="124" width="12" height="12" fill="#fff"/>
<rect x="684" y="124" width="12" height="12" fill="#fff"/>
</svg>
