<svg xmlns="http://www.w3.org/2000/svg" viewBox="0 0 200 100" width="200" height="100">
<rect width="200" height="100" fill="#000"/>
<rect x="30" y="25" width="10" height="5" fill="#fff"/>
<rect x="40" y="20" width="10" height="10" fill="#fff"/>
<rect x="50" y="20" width="10" height="10" fill="#fff"/>
<rect x="60" y="20" width="10" height="10" fill="#fff"/>
<rect x="70" y="20" width="10" height="10" fill="#fff"/>
<rect x="80" y="25" width="10" height="5" fill="#fff"/>
<rect x="110" y="25" width="10" height="5" fill="#fff"/>
<rect x="120" y="20" width="10" height="10" fill="#fff"/>
<rect x="130" y="20" width="10" height="10" fill="#fff"/>
<rect x="140" y="20" width="10" height="10" fill="#fff"/>
<rect x="150" y="20" width="10" height="10" fill="#fff"/>
<rect x="160" y="25" width="10" height="5" fill="#fff"/>
<rect x="20" y="30" width="10" height="10" fill="#fff"/>
<rect x="30" y="30" width="10" height="10" fill="#fff"/>
<rect x="40" y="30" width="10" height="10" fill="#fff"/>
<rect x="50" y="30" width="10" height="10" fill="#fff"/>
<rect x="60" y="30" width="10" height="10" fill="#fff"/>
<rect x="70" y="30" width="10" height="10" fill="#fff"/>
<rect x="80" y="30" width="10" height="10" fill="#fff"/>
<rect x="90" y="30" width="10" height="10" fill="#fff"/>
<rect x="100" y="30" width="10" height="10" fill="#fff"/>
<rect x="110" y="30" width="10" height="10" fill="#fff"/>
<rect x="120" y="30" width="10" height="10" fill="#fff"/>
<rect x="130" y="30" width="10" height="10" fill="#fff"/>
<rect x="140" y="30" width="10" height="10" fill="#fff"/>
<rect x="150" y="30" width="10" height="10" fill="#fff"/>
<rect x="160" y="30" width="10" height="10" fill="#fff"/>
<rect x="170" y="30" width="10" height="10" fill="#fff"/>
<rect x="20" y="40" width="10" height="10" fill="#fff"/>
<rect x="30" y="40" width="10" height="10" fill="#fff"/>
<rect x="40" y="40" width="10" height="10" fill="#fff"/>
<rect x="70" y="40" width="10" height="10" fill="#fff"/>
<rect x="80" y="40" width="10" height="10" fill="#fff"/>
<rect x="90" y="40" width="10" height="10" fill="#fff"/>
<rect x="100" y="40" width="10" height="5" fill="#fff"/>
<rect x="120" y="40" width="10" height="5" fill="#fff"/>
<rect x="130" y="40" width="10" height="10" fill="#fff"/>
<rect x="140" y="40" width="10" height="10" fill="#fff"/>
<rect x="150" y="40" width="10" height="10" fill="#fff"/>
<rect x="160" y="40" width="10" height="10" fill="#fff"/>
<rect x="170" y="40" width="10" height="10" fill="#fff"/>
<rect x="20" y="50" width="10" height="10" fill="#fff"/>
<rect x="30" y="50" width="10" height="10" fill="#fff"/>
<rect x="40" y="50" width="10" height="10" fill="#fff"/>
<rect x="70" y="50" width="10" height="10" fill="#fff"/>
<rect x="80" y="50" width="10" height="10" fill="#fff"/>
<rect x="90" y="50" width="10" height="10" fill="#fff"/>
<rect x="130" y="50" width="10" height="10" fill="#fff"/>
<rect x="140" y="50" width="10" height="10" fill="#fff"/>
<rect x="150" y="50" width="10" height="10" fill="#fff"/>
<rect x="160" y="50" width="10" height="10" fill="#fff"/>
<rect x="170" y="50" width="10" height="10" fill="#fff"/>
<rect x="20" y="60" width="10" height="10" fill="#fff"/>
<rect x="30" y="60" width="10" height="10" fill="#fff"/>
<rect x="40" y="60" width="10" height="10" fill="#fff"/>
<rect x="70" y="60" width="10" height="10" fill="#fff"/>
<rect x="80" y="60" width="10" height="10" fill="#fff"/>
<rect x="90" y="60" width="10" height="10" fill="#fff"/>
<rect x="130" y="60" width="10" height="10" fill="#fff"/>
<rect x="140" y="60" width="10" height="10" fill="#fff"/>
<rect x="150" y="60" width="10" height="10" fill="#fff"/>
<rect x="160" y="60" width="10" height="10" fill="#fff"/>
<rect x="170" y="60" width="10" height="10" fill="#fff"/>
<rect x="20" y="70" width="10" height="10" fill="#fff"/>
<rect x="30" y="70" width="10" height="10" fill="#fff"/>
<rect x="40" y="70" width="10" height="10" fill="#fff"/>
<rect x="70" y="70" width="10" height="10" fill="#fff"/>
<rect x="80" y="70" width="10" height="10" fill="#fff"/>
<rect x="90" y="70" width="10" height="10" fill="#fff"/>
<rect x="130" y="70" width="10" height="10" fill="#fff"/>
<rect x="140" y="70" width="10" height="10" fill="#fff"/>
<rect x="150" y="70" width="10" height="10" fill="#fff"/>
<rect x="160" y="70" width="10" height="10" fill="#fff"/>
<rect x="170" y="70" width="10" height="10" fill="#fff"/>
</svg>
